<?xml version="1.0" encoding="UTF-8" standalone="no"?>
<!-- Created with Inkscape (http://www.inkscape.org/) -->

<svg
   xmlns:dc="http://purl.org/dc/elements/1.1/"
   xmlns:cc="http://creativecommons.org/ns#"
   xmlns:rdf="http://www.w3.org/1999/02/22-rdf-syntax-ns#"
   xmlns:svg="http://www.w3.org/2000/svg"
   xmlns="http://www.w3.org/2000/svg"
   xmlns:xlink="http://www.w3.org/1999/xlink"
   xmlns:sodipodi="http://sodipodi.sourceforge.net/DTD/sodipodi-0.dtd"
   xmlns:inkscape="http://www.inkscape.org/namespaces/inkscape"
   width="744.09448"
   height="1052.3622"
   id="svg2"
   version="1.1"
   inkscape:version="0.48.4 r9939"
   sodipodi:docname="PSU.svg">
  <defs
     id="defs4" />
  <sodipodi:namedview
     id="base"
     pagecolor="#ffffff"
     bordercolor="#666666"
     borderopacity="1.0"
     inkscape:pageopacity="0.0"
     inkscape:pageshadow="2"
     inkscape:zoom="0.60085608"
     inkscape:cx="151.94245"
     inkscape:cy="382.86675"
     inkscape:document-units="mm"
     inkscape:current-layer="layer1"
     showgrid="true"
     units="mm"
     inkscape:snap-bbox="true"
     inkscape:window-width="1680"
     inkscape:window-height="1026"
     inkscape:window-x="0"
     inkscape:window-y="24"
     inkscape:window-maximized="1">
    <inkscape:grid
       type="xygrid"
       id="grid2985"
       empspacing="5"
       visible="true"
       enabled="true"
       snapvisiblegridlinesonly="true"
       units="mm"
       originy="0mm"
       spacingx="1mm"
       spacingy="1mm"
       originx="5mm" />
  </sodipodi:namedview>
  <metadata
     id="metadata7">
    <rdf:RDF>
      <cc:Work
         rdf:about="">
        <dc:format>image/svg+xml</dc:format>
        <dc:type
           rdf:resource="http://purl.org/dc/dcmitype/StillImage" />
        <dc:title />
      </cc:Work>
    </rdf:RDF>
  </metadata>
  <g
     inkscape:label="Platta grund"
     inkscape:groupmode="layer"
     id="layer1"
     transform="translate(0,-2.5390623e-6)"
     style="display:inline"
     sodipodi:insensitive="true">
    <path
       style="fill:none;stroke:#000000;stroke-width:0.99921262;stroke-linecap:butt;stroke-linejoin:miter;stroke-miterlimit:4;stroke-opacity:1;stroke-dasharray:none"
       d="m 18.216142,131.60195 0,707.66181 707.661808,0 0,-707.66181 z"
       id="path2989"
       inkscape:connector-curvature="0" />
    <path
       sodipodi:type="arc"
       style="fill:none;stroke:#000000;stroke-width:1.74750316;stroke-linecap:square;stroke-linejoin:miter;stroke-miterlimit:4;stroke-opacity:1;stroke-dasharray:none;stroke-dashoffset:0"
       id="path2991"
       sodipodi:cx="-159.44882"
       sodipodi:cy="325.98422"
       sodipodi:rx="17.716536"
       sodipodi:ry="17.716536"
       d="m -141.73229,325.98422 a 17.716536,17.716536 0 1 1 -35.43307,0 17.716536,17.716536 0 1 1 35.43307,0 z"
       transform="matrix(-0.40432365,-0.40431579,-0.40432365,0.40431579,106.31058,-1.3865717)" />
    <path
       sodipodi:type="arc"
       style="fill:none;stroke:#000000;stroke-width:1.74750316;stroke-linecap:square;stroke-linejoin:miter;stroke-miterlimit:4;stroke-opacity:1;stroke-dasharray:none;stroke-dashoffset:0"
       id="path2991-7"
       sodipodi:cx="-159.44882"
       sodipodi:cy="325.98422"
       sodipodi:rx="17.716536"
       sodipodi:ry="17.716536"
       d="m -141.73229,325.98422 a 17.716536,17.716536 0 1 1 -35.43307,0 17.716536,17.716536 0 1 1 35.43307,0 z"
       transform="matrix(-0.40432365,-0.40431579,-0.40432365,0.40431579,106.31058,-43.906257)" />
    <path
       transform="matrix(0.40432365,-0.40431579,0.40432365,0.40431579,-28.357823,622.23548)"
       d="m -141.73229,325.98422 a 17.716536,17.716536 0 1 1 -35.43307,0 17.716536,17.716536 0 1 1 35.43307,0 z"
       sodipodi:ry="17.716536"
       sodipodi:rx="17.716536"
       sodipodi:cy="325.98422"
       sodipodi:cx="-159.44882"
       id="path3128"
       style="fill:none;stroke:#000000;stroke-width:1.74750316;stroke-linecap:square;stroke-linejoin:miter;stroke-miterlimit:4;stroke-opacity:1;stroke-dasharray:none;stroke-dashoffset:0"
       sodipodi:type="arc" />
    <path
       transform="matrix(0.40432365,-0.40431579,0.40432365,0.40431579,-28.357823,579.71618)"
       d="m -141.73229,325.98422 a 17.716536,17.716536 0 1 1 -35.43307,0 17.716536,17.716536 0 1 1 35.43307,0 z"
       sodipodi:ry="17.716536"
       sodipodi:rx="17.716536"
       sodipodi:cy="325.98422"
       sodipodi:cx="-159.44882"
       id="path3130"
       style="fill:none;stroke:#000000;stroke-width:1.74750316;stroke-linecap:square;stroke-linejoin:miter;stroke-miterlimit:4;stroke-opacity:1;stroke-dasharray:none;stroke-dashoffset:0"
       sodipodi:type="arc" />
    <path
       transform="matrix(0.40432365,-0.40431579,0.40432365,0.40431579,637.78391,-1.3865717)"
       d="m -141.73229,325.98422 a 17.716536,17.716536 0 1 1 -35.43307,0 17.716536,17.716536 0 1 1 35.43307,0 z"
       sodipodi:ry="17.716536"
       sodipodi:rx="17.716536"
       sodipodi:cy="325.98422"
       sodipodi:cx="-159.44882"
       id="path3134"
       style="fill:none;stroke:#000000;stroke-width:1.74750316;stroke-linecap:square;stroke-linejoin:miter;stroke-miterlimit:4;stroke-opacity:1;stroke-dasharray:none;stroke-dashoffset:0"
       sodipodi:type="arc" />
    <path
       transform="matrix(0.40432365,-0.40431579,0.40432365,0.40431579,637.78391,-43.906257)"
       d="m -141.73229,325.98422 a 17.716536,17.716536 0 1 1 -35.43307,0 17.716536,17.716536 0 1 1 35.43307,0 z"
       sodipodi:ry="17.716536"
       sodipodi:rx="17.716536"
       sodipodi:cy="325.98422"
       sodipodi:cx="-159.44882"
       id="path3136"
       style="fill:none;stroke:#000000;stroke-width:1.74750316;stroke-linecap:square;stroke-linejoin:miter;stroke-miterlimit:4;stroke-opacity:1;stroke-dasharray:none;stroke-dashoffset:0"
       sodipodi:type="arc" />
    <path
       transform="matrix(-0.40432365,-0.40431579,-0.40432365,0.40431579,772.45231,622.23548)"
       d="m -141.73229,325.98422 a 17.716536,17.716536 0 1 1 -35.43307,0 17.716536,17.716536 0 1 1 35.43307,0 z"
       sodipodi:ry="17.716536"
       sodipodi:rx="17.716536"
       sodipodi:cy="325.98422"
       sodipodi:cx="-159.44882"
       id="path3140"
       style="fill:none;stroke:#000000;stroke-width:1.74750316;stroke-linecap:square;stroke-linejoin:miter;stroke-miterlimit:4;stroke-opacity:1;stroke-dasharray:none;stroke-dashoffset:0"
       sodipodi:type="arc" />
    <path
       transform="matrix(-0.40432365,-0.40431579,-0.40432365,0.40431579,772.45231,579.71618)"
       d="m -141.73229,325.98422 a 17.716536,17.716536 0 1 1 -35.43307,0 17.716536,17.716536 0 1 1 35.43307,0 z"
       sodipodi:ry="17.716536"
       sodipodi:rx="17.716536"
       sodipodi:cy="325.98422"
       sodipodi:cx="-159.44882"
       id="path3142"
       style="fill:none;stroke:#000000;stroke-width:1.74750316;stroke-linecap:square;stroke-linejoin:miter;stroke-miterlimit:4;stroke-opacity:1;stroke-dasharray:none;stroke-dashoffset:0"
       sodipodi:type="arc" />
    <path
       style="fill:none;stroke:#ff0000;stroke-width:0.99999994px;stroke-linecap:butt;stroke-linejoin:miter;stroke-opacity:1;display:inline"
       d="m 106.79921,142.23226 0,583.64567 530.49607,0 0,-583.64567 z"
       id="path3049"
       inkscape:connector-curvature="0" />
  </g>
  <g
     inkscape:groupmode="layer"
     id="layer3"
     inkscape:label="Lager 1"
     style="display:none"
     sodipodi:insensitive="true">
    <path
       style="fill:none;stroke:#000000;stroke-width:0.99999994px;stroke-linecap:butt;stroke-linejoin:miter;stroke-opacity:1"
       d="m 106.79921,737.50785 0,91.62599 530.49607,0 0,-91.62599 z"
       id="path3819"
       inkscape:connector-curvature="0" />
    <path
       style="fill:none;stroke:#000000;stroke-width:1px;stroke-linecap:butt;stroke-linejoin:miter;stroke-opacity:1;display:inline"
       d="m 29.346461,637.79525 60.236217,0 0,60.23622 -60.236217,0 z"
       id="path3073-8"
       inkscape:connector-curvature="0" />
    <use
       style="display:inline"
       x="0"
       y="0"
       xlink:href="#path3073-8"
       id="use3075-5"
       transform="translate(626.66535,0.50000411)"
       width="744.09448"
       height="1052.3622" />
  </g>
  <g
     inkscape:groupmode="layer"
     id="layer2"
     inkscape:label="Lager 2"
     style="display:none"
     sodipodi:insensitive="true">
    <path
       style="fill:none;stroke:#000000;stroke-width:1px;stroke-linecap:butt;stroke-linejoin:miter;stroke-opacity:1;display:inline"
       d="m 28.846455,273.33462 0,354.33071 24.80315,0 0,-354.33071 z"
       id="path2993"
       inkscape:connector-curvature="0" />
    <use
       style="display:inline"
       x="0"
       y="0"
       xlink:href="#path2993"
       id="use2995"
       transform="translate(34.933066,0.49999727)"
       width="744.09448"
       height="1052.3622" />
    <path
       style="fill:none;stroke:#000000;stroke-width:0.99999994px;stroke-linecap:butt;stroke-linejoin:miter;stroke-opacity:1;display:inline"
       d="m 106.79921,737.50785 0,91.62599 530.49607,0 0,-91.62599 z"
       id="path3819-5"
       inkscape:connector-curvature="0" />
    <use
       x="0"
       y="0"
       xlink:href="#path2993"
       id="use3067"
       transform="translate(626.66536,-0.49999473)"
       width="744.09448"
       height="1052.3622" />
    <use
       x="0"
       y="0"
       xlink:href="#use2995"
       id="use3069"
       transform="translate(626.66536,-0.49999473)"
       width="744.09448"
       height="1052.3622" />
    <path
       style="fill:none;stroke:#000000;stroke-width:1px;stroke-linecap:butt;stroke-linejoin:miter;stroke-opacity:1"
       d="m 106.29921,141.73226 0,584.64567 531.49607,0 0,-584.64567 z"
       id="path3071"
       inkscape:connector-curvature="0" />
    <path
       style="fill:none;stroke:#000000;stroke-width:1px;stroke-linecap:butt;stroke-linejoin:miter;stroke-opacity:1"
       d="m 28.346455,637.79525 60.23622,0 0,60.23622 -60.23622,0 z"
       id="path3073"
       inkscape:connector-curvature="0" />
    <use
       x="0"
       y="0"
       xlink:href="#path3073"
       id="use3075"
       transform="translate(626.66535,0.50000127)"
       width="744.09448"
       height="1052.3622" />
  </g>
  <g
     style="display:none"
     inkscape:label="Lager 3"
     id="g3098"
     inkscape:groupmode="layer"
     sodipodi:insensitive="true">
    <path
       inkscape:connector-curvature="0"
       id="path3104"
       d="m 106.79921,737.50785 0,91.62599 530.49607,0 0,-91.62599 z"
       style="fill:none;stroke:#000000;stroke-width:0.99999994px;stroke-linecap:butt;stroke-linejoin:miter;stroke-opacity:1;display:inline" />
    <path
       inkscape:connector-curvature="0"
       id="path3110"
       d="m 106.29921,141.73226 0,584.64567 531.49607,0 0,-584.64567 z"
       style="fill:none;stroke:#000000;stroke-width:1px;stroke-linecap:butt;stroke-linejoin:miter;stroke-opacity:1" />
    <path
       inkscape:connector-curvature="0"
       id="path3112"
       d="m 28.346455,637.79525 60.23622,0 0,60.23622 -60.23622,0 z"
       style="fill:none;stroke:#000000;stroke-width:1px;stroke-linecap:butt;stroke-linejoin:miter;stroke-opacity:1" />
    <use
       height="1052.3622"
       width="744.09448"
       transform="translate(626.66535,0.50000127)"
       id="use3114"
       xlink:href="#path3073"
       y="0"
       x="0" />
  </g>
  <g
     inkscape:groupmode="layer"
     id="g3116"
     inkscape:label="Lager 4"
     style="display:inline"
     sodipodi:insensitive="true">
    <path
       style="fill:none;stroke:#000000;stroke-width:0.99999994px;stroke-linecap:butt;stroke-linejoin:miter;stroke-opacity:1;display:inline"
       d="m 106.79921,737.50785 0,91.62599 530.49607,0 0,-91.62599 z"
       id="path3118"
       inkscape:connector-curvature="0" />
    <path
       style="fill:none;stroke:#000000;stroke-width:0.99999994px;stroke-linecap:butt;stroke-linejoin:miter;stroke-opacity:1"
       d="m 142.19259,177.66533 0,512.77953 460.29772,0 0,-512.77953 z"
       id="path3120"
       inkscape:connector-curvature="0" />
    <path
       style="fill:none;stroke:#000000;stroke-width:1px;stroke-linecap:butt;stroke-linejoin:miter;stroke-opacity:1"
       d="m 28.346455,637.79525 60.23622,0 0,60.23622 -60.23622,0 z"
       id="path3122"
       inkscape:connector-curvature="0" />
    <use
       x="0"
       y="0"
       xlink:href="#path3073"
       id="use3124"
       transform="translate(626.66535,0.50000127)"
       width="744.09448"
       height="1052.3622" />
  </g>
</svg>
